<svg xmlns="http://www.w3.org/2000/svg" viewBox="0 0 22.25 21.06"><defs><style>.cls-1{fill:#fff;}</style></defs><title>dog-icon</title><g id="Слой_2" data-name="Слой 2"><g id="Слой_1-2" data-name="Слой 1"><g id="_Группа_" data-name="&lt;Группа&gt;"><path id="_Контур_" data-name="&lt;Контур&gt;" class="cls-1" d="M14.75,11.58a5.67,5.67,0,0,0-9.4-1.66l-3.6,3.91A3.3,3.3,0,0,0,5,19.28H5a8.75,8.75,0,0,1,7,1.22,3.3,3.3,0,0,0,4.89-4Z"/><path id="_Контур_2" data-name="&lt;Контур&gt;" class="cls-1" d="M3.15,9.1A2.8,2.8,0,0,0,5.08,5.66,2.8,2.8,0,0,0,2,3.2,2.8,2.8,0,0,0,.07,6.64,2.8,2.8,0,0,0,3.15,9.1Z"/><path id="_Контур_3" data-name="&lt;Контур&gt;" class="cls-1" d="M8.74,7.24a3.42,3.42,0,0,0,3.69-3.06A3.41,3.41,0,0,0,10,0,3.41,3.41,0,0,0,6.31,3.1,3.42,3.42,0,0,0,8.74,7.24Z"/><path id="_Контур_4" data-name="&lt;Контур&gt;" class="cls-1" d="M14.26,9.31a3.41,3.41,0,0,0,4.47-1.73,3.42,3.42,0,0,0-1-4.7,3.42,3.42,0,0,0-4.47,1.74A3.41,3.41,0,0,0,14.26,9.31Z"/><path id="_Контур_5" data-name="&lt;Контур&gt;" class="cls-1" d="M21.63,10.05a2.81,2.81,0,0,0-3.94.21,2.82,2.82,0,0,0-.42,3.93A2.81,2.81,0,0,0,21.21,14,2.8,2.8,0,0,0,21.63,10.05Z"/></g></g></g></svg>