<svg xmlns="http://www.w3.org/2000/svg" viewBox="0 0 35.91 22.3"><defs><style>.cls-1{fill:#473d30;}</style></defs><title>paws-icon</title><g id="Слой_2" data-name="Слой 2"><g id="Слой_1-2" data-name="Слой 1"><g id="_Группа_" data-name="&lt;Группа&gt;"><path id="_Контур_" data-name="&lt;Контур&gt;" class="cls-1" d="M14.49,13.09a5.66,5.66,0,0,0-9-3.27L1.3,13.05A3.3,3.3,0,0,0,3.52,19h0a8.79,8.79,0,0,1,6.63,2.41,3.3,3.3,0,0,0,5.51-3.11Z"/><path id="_Контур_2" data-name="&lt;Контур&gt;" class="cls-1" d="M3.5,8.63A2.8,2.8,0,0,0,6,5.58,2.8,2.8,0,0,0,3.39,2.63a2.8,2.8,0,0,0-2.5,3A2.81,2.81,0,0,0,3.5,8.63Z"/><path id="_Контур_3" data-name="&lt;Контур&gt;" class="cls-1" d="M9.33,7.77A3.42,3.42,0,0,0,13.5,5.4,3.42,3.42,0,0,0,11.83.9,3.43,3.43,0,0,0,7.65,3.27,3.42,3.42,0,0,0,9.33,7.77Z"/><path id="_Контур_4" data-name="&lt;Контур&gt;" class="cls-1" d="M14.41,10.77a3.41,3.41,0,0,0,4.7-.93,3.4,3.4,0,0,0-.17-4.79,3.41,3.41,0,0,0-4.7.93A3.4,3.4,0,0,0,14.41,10.77Z"/><path id="_Контур_5" data-name="&lt;Контур&gt;" class="cls-1" d="M21.54,12.78a2.81,2.81,0,0,0-3.92-.47,2.81,2.81,0,0,0-1.09,3.79,2.8,2.8,0,0,0,3.91.47A2.8,2.8,0,0,0,21.54,12.78Z"/></g><g id="_Группа_2" data-name="&lt;Группа&gt;"><path id="_Контур_6" data-name="&lt;Контур&gt;" class="cls-1" d="M31.92,6.64A3,3,0,0,0,27.1,4.89L24.83,6.62A1.77,1.77,0,0,0,26,9.8h0a4.77,4.77,0,0,1,3.57,1.3,1.77,1.77,0,0,0,3-1.67Z"/><path id="_Контур_7" data-name="&lt;Контур&gt;" class="cls-1" d="M26,4.24A1.51,1.51,0,0,0,27.36,2.6,1.52,1.52,0,0,0,26,1a1.51,1.51,0,0,0-1.34,1.64A1.51,1.51,0,0,0,26,4.24Z"/><path id="_Контур_8" data-name="&lt;Контур&gt;" class="cls-1" d="M29.15,3.78a1.84,1.84,0,0,0,2.24-1.27,1.84,1.84,0,0,0-.9-2.42,1.82,1.82,0,0,0-2.24,1.27A1.83,1.83,0,0,0,29.15,3.78Z"/><path id="_Контур_9" data-name="&lt;Контур&gt;" class="cls-1" d="M31.88,5.39a1.83,1.83,0,0,0,2.53-.5,1.83,1.83,0,0,0-.09-2.57,1.83,1.83,0,0,0-2.53.5A1.81,1.81,0,0,0,31.88,5.39Z"/><path id="_Контур_10" data-name="&lt;Контур&gt;" class="cls-1" d="M35.71,6.48a1.5,1.5,0,0,0-2.1-.26,1.51,1.51,0,0,0-.59,2,1.5,1.5,0,0,0,2.1.25A1.5,1.5,0,0,0,35.71,6.48Z"/></g></g></g></svg>